HIERARCHY
ROOT newVegas:Hips
{
	OFFSET 0.000000 96.479958 0.000000
	CHANNELS 6 Xposition Yposition Zposition Xrotation Yrotation Zrotation
	JOINT newVegas:Pelvis
	{
		OFFSET 0.000000 0.000000 0.000000
		CHANNELS 3 Xrotation Yrotation Zrotation
		JOINT newVegas:LeftUpLeg
		{
			OFFSET 18.735201 -5.666702 -4.541200
			CHANNELS 3 Xrotation Yrotation Zrotation
			JOINT newVegas:LeftLeg
			{
				OFFSET -0.021200 -31.938179 0.493100
				CHANNELS 3 Xrotation Yrotation Zrotation
				JOINT newVegas:LeftFoot
				{
					OFFSET 0.021200 -31.938179 -4.336299
					CHANNELS 3 Xrotation Yrotation Zrotation
					JOINT newVegas:LeftToeBase
					{
						OFFSET 0.943001 -26.722000 15.023500
						CHANNELS 3 Xrotation Yrotation Zrotation
						End Site
						{
							OFFSET 0.000000 30.670183 0.000000
						}
					}
				}
				JOINT newVegas:Left_PantLeg
				{
					OFFSET 0.663870 -9.044666 -1.108900
					CHANNELS 3 Xrotation Yrotation Zrotation
					End Site
					{
						OFFSET 1.415995 20.635357 0.000000
					}
				}
			}
		}
		JOINT newVegas:RightUpLeg
		{
			OFFSET -18.735201 -5.666702 -4.541200
			CHANNELS 3 Xrotation Yrotation Zrotation
			JOINT newVegas:RightLeg
			{
				OFFSET 0.018946 -31.938133 0.493100
				CHANNELS 3 Xrotation Yrotation Zrotation
				JOINT newVegas:RightFoot
				{
					OFFSET -0.018946 -31.938126 -4.336299
					CHANNELS 3 Xrotation Yrotation Zrotation
					JOINT newVegas:RightToeBase
					{
						OFFSET -0.943001 -26.722004 15.023500
						CHANNELS 3 Xrotation Yrotation Zrotation
						End Site
						{
							OFFSET 0.000000 30.670187 0.000000
						}
					}
				}
				JOINT newVegas:Right_PantLeg
				{
					OFFSET -0.661674 -9.044716 -1.108900
					CHANNELS 3 Xrotation Yrotation Zrotation
					End Site
					{
						OFFSET -1.415958 20.635269 0.000000
					}
				}
			}
		}
	}
	JOINT newVegas:Spine
	{
		OFFSET 0.000000 10.199997 -0.299500
		CHANNELS 3 Xrotation Yrotation Zrotation
		JOINT newVegas:Spine1
		{
			OFFSET 0.000000 11.900002 -1.516600
			CHANNELS 3 Xrotation Yrotation Zrotation
			JOINT newVegas:Spine2
			{
				OFFSET 0.000000 13.600006 -2.842500
				CHANNELS 3 Xrotation Yrotation Zrotation
				JOINT newVegas:Neck
				{
					OFFSET 0.000000 9.624100 -2.890100
					CHANNELS 3 Xrotation Yrotation Zrotation
					JOINT newVegas:Head
					{
						OFFSET 0.000000 14.068802 -1.351900
						CHANNELS 3 Xrotation Yrotation Zrotation
						JOINT newVegas:Hair_Back
						{
							OFFSET 0.000000 3.231903 -17.524799
							CHANNELS 3 Xrotation Yrotation Zrotation
							End Site
							{
								OFFSET 0.000000 19.849884 0.000000
							}
						}
						JOINT newVegas:Hair_Front
						{
							OFFSET 0.000000 31.260406 4.573800
							CHANNELS 3 Xrotation Yrotation Zrotation
							JOINT newVegas:Hair_Front1
							{
								OFFSET 0.000000 2.284103 11.993300
								CHANNELS 3 Xrotation Yrotation Zrotation
								JOINT newVegas:Hair_Front2
								{
									OFFSET 0.000000 2.284103 11.993300
									CHANNELS 3 Xrotation Yrotation Zrotation
									End Site
									{
										OFFSET 0.000000 12.208862 0.000000
									}
								}
							}
						}
						JOINT newVegas:Jowel
						{
							OFFSET 0.000000 -7.458206 6.864100
							CHANNELS 3 Xrotation Yrotation Zrotation
							End Site
							{
								OFFSET 0.000000 19.849884 0.000000
							}
						}
					}
				}
				JOINT newVegas:LeftShoulder
				{
					OFFSET 15.263000 10.923401 -0.547700
					CHANNELS 3 Xrotation Yrotation Zrotation
					JOINT newVegas:LeftArm
					{
						OFFSET 25.438599 -2.830597 -13.032500
						CHANNELS 3 Xrotation Yrotation Zrotation
						JOINT newVegas:LeftForeArm
						{
							OFFSET 29.960503 0.000000 0.000000
							CHANNELS 3 Xrotation Yrotation Zrotation
							JOINT newVegas:LeftHand
							{
								OFFSET 27.849251 0.000000 0.000000
								CHANNELS 3 Xrotation Yrotation Zrotation
								JOINT newVegas:LeftHandThumb1
								{
									OFFSET 4.487587 -3.305161 6.305391
									CHANNELS 3 Xrotation Yrotation Zrotation
									JOINT newVegas:LeftHandThumb2
									{
										OFFSET 5.480453 -3.164139 3.164143
										CHANNELS 3 Xrotation Yrotation Zrotation
										JOINT newVegas:LeftHandThumb3
										{
											OFFSET 5.159721 -2.978973 2.978967
											CHANNELS 3 Xrotation Yrotation Zrotation
											End Site
											{
												OFFSET 2.494507 5.926697 1.738678
											}
										}
									}
								}
								JOINT newVegas:LeftHandIndex1
								{
									OFFSET 18.578728 -0.527832 5.208049
									CHANNELS 3 Xrotation Yrotation Zrotation
									JOINT newVegas:LeftHandIndex2
									{
										OFFSET 3.192009 0.000000 0.000000
										CHANNELS 3 Xrotation Yrotation Zrotation
										JOINT newVegas:LeftHandIndex3
										{
											OFFSET 3.835129 0.000000 0.000000
											CHANNELS 3 Xrotation Yrotation Zrotation
											End Site
											{
												OFFSET -0.034599 3.816971 0.371180
											}
										}
									}
								}
								JOINT newVegas:LeftHandMiddle1
								{
									OFFSET 18.476105 0.000000 0.000000
									CHANNELS 3 Xrotation Yrotation Zrotation
									JOINT newVegas:LeftHandMiddle2
									{
										OFFSET 3.324875 0.000000 0.000000
										CHANNELS 3 Xrotation Yrotation Zrotation
										JOINT newVegas:LeftHandMiddle3
										{
											OFFSET 4.596550 0.000000 0.000000
											CHANNELS 3 Xrotation Yrotation Zrotation
											End Site
											{
												OFFSET 0.057701 4.578827 0.399218
											}
										}
									}
								}
								JOINT newVegas:LeftHandRing1
								{
									OFFSET 17.732719 0.121887 -4.201567
									CHANNELS 3 Xrotation Yrotation Zrotation
									JOINT newVegas:LeftHandRing2
									{
										OFFSET 2.733170 0.000000 0.000000
										CHANNELS 3 Xrotation Yrotation Zrotation
										JOINT newVegas:LeftHandRing3
										{
											OFFSET 3.178268 0.000000 0.000000
											CHANNELS 3 Xrotation Yrotation Zrotation
											End Site
											{
												OFFSET 0.119102 3.170624 0.185394
											}
										}
									}
								}
								JOINT newVegas:LeftHandPinky1
								{
									OFFSET 15.989624 -0.606689 -7.535461
									CHANNELS 3 Xrotation Yrotation Zrotation
									JOINT newVegas:LeftHandPinky2
									{
										OFFSET 2.538986 0.000000 0.000000
										CHANNELS 3 Xrotation Yrotation Zrotation
										JOINT newVegas:LeftHandPinky3
										{
											OFFSET 2.593102 0.000000 0.000000
											CHANNELS 3 Xrotation Yrotation Zrotation
											End Site
											{
												OFFSET -0.150902 2.584198 0.152708
											}
										}
									}
								}
							}
							JOINT newVegas:Left_Sleeve
							{
								OFFSET 0.267448 -0.649796 0.577675
								CHANNELS 3 Xrotation Yrotation Zrotation
								End Site
								{
									OFFSET 0.000000 15.991241 0.000000
								}
							}
							JOINT newVegas:Left_CapeC
							{
								OFFSET 15.715958 -8.608795 -6.935905
								CHANNELS 3 Xrotation Yrotation Zrotation
								JOINT newVegas:Left_CapeC1
								{
									OFFSET 0.000000 -8.688499 0.000000
									CHANNELS 3 Xrotation Yrotation Zrotation
									End Site
									{
										OFFSET 0.000000 8.688499 0.000000
									}
								}
							}
						}
						JOINT newVegas:Left_CapeB
						{
							OFFSET 26.118385 -8.608795 -7.079235
							CHANNELS 3 Xrotation Yrotation Zrotation
							JOINT newVegas:Left_CapeB1
							{
								OFFSET 0.000000 -8.688499 0.000000
								CHANNELS 3 Xrotation Yrotation Zrotation
								End Site
								{
									OFFSET 0.000000 8.688499 0.000000
								}
							}
						}
						JOINT newVegas:Left_CapeA
						{
							OFFSET 5.115639 -8.608795 -10.395809
							CHANNELS 3 Xrotation Yrotation Zrotation
							JOINT newVegas:Left_CapeA1
							{
								OFFSET 0.000000 -8.688499 0.000000
								CHANNELS 3 Xrotation Yrotation Zrotation
								End Site
								{
									OFFSET 0.000000 8.688499 0.000000
								}
							}
						}
					}
				}
				JOINT newVegas:RightShoulder
				{
					OFFSET -15.263000 10.923401 -0.547700
					CHANNELS 3 Xrotation Yrotation Zrotation
					JOINT newVegas:RightArm
					{
						OFFSET -25.438599 -2.830597 -13.032500
						CHANNELS 3 Xrotation Yrotation Zrotation
						JOINT newVegas:RightForeArm
						{
							OFFSET -29.960503 0.000000 0.000000
							CHANNELS 3 Xrotation Yrotation Zrotation
							JOINT newVegas:RightHand
							{
								OFFSET -27.849251 0.000000 0.000000
								CHANNELS 3 Xrotation Yrotation Zrotation
								JOINT newVegas:RightHandThumb1
								{
									OFFSET -4.487587 -3.305161 6.305391
									CHANNELS 3 Xrotation Yrotation Zrotation
									JOINT newVegas:RightHandThumb2
									{
										OFFSET -5.480453 -3.164139 3.164143
										CHANNELS 3 Xrotation Yrotation Zrotation
										JOINT newVegas:RightHandThumb3
										{
											OFFSET -5.159721 -2.978973 2.978967
											CHANNELS 3 Xrotation Yrotation Zrotation
											End Site
											{
												OFFSET -2.494507 5.926697 1.738678
											}
										}
									}
								}
								JOINT newVegas:RightHandIndex1
								{
									OFFSET -18.578728 -0.527832 5.208049
									CHANNELS 3 Xrotation Yrotation Zrotation
									JOINT newVegas:RightHandIndex2
									{
										OFFSET -3.192009 0.000000 0.000000
										CHANNELS 3 Xrotation Yrotation Zrotation
										JOINT newVegas:RightHandIndex3
										{
											OFFSET -3.835129 0.000000 0.000000
											CHANNELS 3 Xrotation Yrotation Zrotation
											End Site
											{
												OFFSET 0.034599 3.816971 0.371180
											}
										}
									}
								}
								JOINT newVegas:RightHandMiddle1
								{
									OFFSET -18.476105 0.000000 0.000000
									CHANNELS 3 Xrotation Yrotation Zrotation
									JOINT newVegas:RightHandMiddle2
									{
										OFFSET -3.324875 0.000000 0.000000
										CHANNELS 3 Xrotation Yrotation Zrotation
										JOINT newVegas:RightHandMiddle3
										{
											OFFSET -4.596550 0.000000 0.000000
											CHANNELS 3 Xrotation Yrotation Zrotation
											End Site
											{
												OFFSET -0.057701 4.578827 0.399218
											}
										}
									}
								}
								JOINT newVegas:RightHandRing1
								{
									OFFSET -17.732719 0.121887 -4.201567
									CHANNELS 3 Xrotation Yrotation Zrotation
									JOINT newVegas:RightHandRing2
									{
										OFFSET -2.733170 0.000000 0.000000
										CHANNELS 3 Xrotation Yrotation Zrotation
										JOINT newVegas:RightHandRing3
										{
											OFFSET -3.178268 0.000000 0.000000
											CHANNELS 3 Xrotation Yrotation Zrotation
											End Site
											{
												OFFSET -0.119102 3.170624 0.185394
											}
										}
									}
								}
								JOINT newVegas:RightHandPinky1
								{
									OFFSET -15.989624 -0.606689 -7.535461
									CHANNELS 3 Xrotation Yrotation Zrotation
									JOINT newVegas:RightHandPinky2
									{
										OFFSET -2.538986 0.000000 0.000000
										CHANNELS 3 Xrotation Yrotation Zrotation
										JOINT newVegas:RightHandPinky3
										{
											OFFSET -2.593102 0.000000 0.000000
											CHANNELS 3 Xrotation Yrotation Zrotation
											End Site
											{
												OFFSET 0.150902 2.584198 0.152708
											}
										}
									}
								}
							}
							JOINT newVegas:Right_CapeC
							{
								OFFSET -15.715958 -8.608795 -6.935905
								CHANNELS 3 Xrotation Yrotation Zrotation
								JOINT newVegas:Right_CapeC1
								{
									OFFSET 0.000000 -8.688499 0.000000
									CHANNELS 3 Xrotation Yrotation Zrotation
									End Site
									{
										OFFSET 0.000000 8.688499 0.000000
									}
								}
							}
							JOINT newVegas:Right_Sleeve
							{
								OFFSET -0.267448 -0.649994 0.577675
								CHANNELS 3 Xrotation Yrotation Zrotation
								End Site
								{
									OFFSET 0.000000 15.991302 0.000000
								}
							}
						}
						JOINT newVegas:Right_CapeA
						{
							OFFSET -5.115540 -8.608795 -10.395824
							CHANNELS 3 Xrotation Yrotation Zrotation
							JOINT newVegas:Right_CapeA1
							{
								OFFSET 0.000000 -8.688499 0.000000
								CHANNELS 3 Xrotation Yrotation Zrotation
								End Site
								{
									OFFSET 0.000000 8.688499 0.000000
								}
							}
						}
						JOINT newVegas:Right_CapeB
						{
							OFFSET -26.118187 -8.608795 -7.079266
							CHANNELS 3 Xrotation Yrotation Zrotation
							JOINT newVegas:Right_CapeB1
							{
								OFFSET 0.000000 -8.688499 0.000000
								CHANNELS 3 Xrotation Yrotation Zrotation
								End Site
								{
									OFFSET 0.000000 8.688499 0.000000
								}
							}
						}
					}
				}
				JOINT newVegas:Left_Collar
				{
					OFFSET 18.625099 8.655502 8.828100
					CHANNELS 3 Xrotation Yrotation Zrotation
					JOINT newVegas:Left_Collar1
					{
						OFFSET 14.783401 10.540405 -1.259500
						CHANNELS 3 Xrotation Yrotation Zrotation
						End Site
						{
							OFFSET 0.000000 18.199875 0.000000
						}
					}
				}
				JOINT newVegas:Collar_Back
				{
					OFFSET 0.000000 15.630707 -20.132601
					CHANNELS 3 Xrotation Yrotation Zrotation
					End Site
					{
						OFFSET 0.000000 22.523010 0.000000
					}
				}
				JOINT newVegas:Left_Peck
				{
					OFFSET 17.239599 -5.132599 25.482599
					CHANNELS 3 Xrotation Yrotation Zrotation
					End Site
					{
						OFFSET 0.000000 22.523010 0.000000
					}
				}
				JOINT newVegas:Right_Peck
				{
					OFFSET -17.239599 -5.132202 25.482599
					CHANNELS 3 Xrotation Yrotation Zrotation
					End Site
					{
						OFFSET 0.000000 22.523010 0.000000
					}
				}
				JOINT newVegas:Right_Collar
				{
					OFFSET -18.625099 8.655792 8.828100
					CHANNELS 3 Xrotation Yrotation Zrotation
					JOINT newVegas:Right_Collar1
					{
						OFFSET -14.783401 10.539993 -1.259500
						CHANNELS 3 Xrotation Yrotation Zrotation
						End Site
						{
							OFFSET 0.000000 18.199631 0.000000
						}
					}
				}
			}
		}
		JOINT newVegas:Belly
		{
			OFFSET 0.000000 -6.540398 9.014299
			CHANNELS 3 Xrotation Yrotation Zrotation
			End Site
			{
				OFFSET 0.000000 11.566666 0.000000
			}
		}
	}
	JOINT newVegas:ElvisFacialAnim_Joint
	{
		OFFSET 1.000000 -95.330101 -8.825800
		CHANNELS 3 Xrotation Yrotation Zrotation
		End Site
		{
			OFFSET 0.000000 35.315800 0.000000
		}
	}
}
MOTION
Frames: 4
Frame Time: 0.016667
-2.744505 131.311020 10.205626 5.687835 -19.408874 11.359230 -0.000000 -0.000001 -0.000000 -103.080443 -8.963631 24.432333 63.002730 -6.669272 -14.943890 17.884789 -7.468916 11.812624 -0.000001 -0.000000 -0.000002 -0.000001 -0.000000 0.000000 -117.670198 1.624079 11.100391 123.519695 -7.049588 -2.377244 50.728191 0.421244 -5.169599 0.000001 -0.000001 -0.000000 0.000000 0.000001 -0.000000 34.382482 -7.103425 -10.913562 -1.919974 -0.704207 -1.068981 -1.861953 -0.963995 -0.958726 -5.311223 1.924605 1.493913 -5.311229 1.924605 1.493917 0.000000 -0.000000 -0.000000 -5.311162 1.924619 1.493909 -5.311146 1.924587 1.493916 0.000001 0.000000 0.000000 0.000000 -0.000000 -0.000001 14.342943 -28.036217 31.312989 -54.053308 10.158286 9.211016 -39.508686 -62.618348 -18.464469 0.677882 -3.694905 5.616506 -4.212052 -7.549105 8.222285 2.840609 18.398131 -2.239065 -0.000003 -0.000001 -0.000006 13.557856 -2.400528 2.442066 -0.158543 0.312402 -41.706884 -0.000000 -0.000000 -0.000000 8.872544 -0.946707 -8.698836 0.333518 0.702985 -39.129764 0.000000 -0.000002 -0.000001 6.417769 2.640947 -21.662573 0.073917 0.361684 -38.094014 -0.000001 0.000001 0.000002 -5.773330 7.351748 -20.511937 0.248322 0.299196 -53.404016 0.000001 -0.000005 0.000002 -0.000000 0.000001 -0.000003 -0.000000 0.000001 -0.000003 -0.000001 0.000001 -0.000003 -0.000001 0.000003 0.000001 -0.000001 0.000002 0.000001 -0.000001 0.000003 0.000001 -0.000001 0.000002 0.000001 3.778675 7.559641 -24.581258 -73.831449 -14.404389 -24.052250 -51.826181 60.836700 47.494929 9.141604 7.948698 -22.976008 -13.975083 13.836817 -0.527702 10.118322 -39.599449 -4.011416 0.000000 0.000001 -0.000000 11.271646 3.607141 -9.674707 -0.308889 -0.132932 59.230171 -0.000001 0.000002 -0.000002 5.407488 -9.717466 -10.964778 0.477125 -0.644339 52.079885 0.000001 0.000000 0.000003 4.999338 -19.199884 -5.805067 0.293127 -0.312907 63.639789 0.000000 0.000002 0.000000 10.206688 -27.451348 11.592833 0.317943 -0.173578 82.243886 -0.000000 0.000002 0.000000 -0.000001 0.000001 -0.000001 -0.000003 -0.000000 0.000000 -0.000001 0.000001 -0.000003 0.000002 0.000002 -0.000001 0.000003 0.000002 -0.000000 0.000002 0.000002 -0.000001 0.000003 0.000001 0.000002 -0.000000 0.000001 -0.000001 -0.000000 0.000001 -0.000001 -0.000000 0.000001 -0.000001 -0.000000 0.000001 -0.000001 -0.000000 0.000001 -0.000001 -0.000000 0.000001 -0.000001 -0.000000 0.000001 -0.000001 0.000002 0.000000 -0.000000 -0.000000 -0.000001 -0.000000 
-2.890740 131.416626 15.076147 5.367079 -19.547704 11.032745 -0.000000 -0.000001 0.000001 -100.225322 -7.683708 23.233754 60.043455 -6.815016 -14.600952 18.798661 -6.682051 11.545545 -0.000001 -0.000001 -0.000001 -0.000003 0.000001 -0.000000 -118.545719 2.673372 10.755273 121.186762 -7.693712 -2.328086 50.805956 1.123969 -1.601518 -0.000001 0.000000 0.000001 0.000000 0.000002 -0.000000 34.120773 -7.159695 -10.793881 -1.705503 -0.826083 -1.172772 -1.718724 -1.101914 -0.901945 -5.228491 1.916171 1.542011 -5.228482 1.916188 1.542007 0.000002 -0.000002 0.000001 -5.228497 1.916177 1.542008 -5.228514 1.916168 1.542012 0.000000 -0.000001 0.000000 0.000002 -0.000002 0.000000 13.329978 -28.376443 28.717366 -55.448575 15.227888 10.991227 -68.123747 -71.308158 -47.693039 11.233196 4.906531 -1.251270 -4.209888 -7.549283 8.222484 2.840275 18.399227 -2.238921 -0.000000 -0.000001 -0.000001 13.557227 -2.399514 2.530731 -0.158558 0.312331 -41.632274 0.000000 0.000001 0.000000 8.872457 -0.946792 -8.589841 0.333084 0.702576 -39.040477 0.000001 -0.000002 0.000001 6.418080 2.639994 -21.526851 0.073514 0.361146 -37.984919 -0.000002 0.000001 -0.000000 -5.768890 7.348712 -20.334964 0.247763 0.298790 -53.267300 0.000001 0.000005 -0.000002 -0.000003 -0.000001 0.000003 -0.000003 -0.000001 0.000003 -0.000004 -0.000000 0.000003 -0.000000 -0.000002 -0.000000 -0.000000 -0.000003 0.000001 -0.000000 -0.000002 -0.000000 -0.000000 -0.000003 0.000000 3.694515 8.731532 -22.067274 -77.217672 -16.836300 -27.351911 -55.432313 62.389782 51.618024 16.842403 16.542148 -19.530853 -13.852528 13.688633 -0.611940 9.965727 -39.155149 -3.888437 -0.000002 0.000000 0.000001 11.276144 3.678401 -9.745178 -0.306504 -0.132132 58.914650 0.000002 0.000002 0.000001 5.433452 -9.621381 -11.002377 0.474217 -0.645747 51.742142 0.000002 0.000000 0.000000 5.046115 -19.088480 -5.820347 0.290796 -0.313049 63.102315 -0.000001 -0.000001 -0.000000 10.132931 -27.291945 11.300265 0.315802 -0.176072 81.291300 0.000001 0.000002 0.000000 -0.000000 0.000002 0.000005 -0.000000 0.000000 0.000003 -0.000000 0.000002 0.000003 0.000001 0.000002 0.000002 0.000001 0.000002 0.000001 0.000001 0.000002 0.000002 0.000001 0.000002 0.000003 -0.000000 -0.000000 0.000001 -0.000000 -0.000000 0.000001 -0.000000 -0.000000 0.000001 -0.000000 -0.000000 0.000001 -0.000000 -0.000000 0.000001 -0.000000 -0.000000 0.000001 -0.000000 -0.000000 0.000001 0.000001 0.000001 -0.000001 -0.000000 -0.000001 0.000001 
-3.049223 131.367691 19.678556 5.063393 -19.967759 10.796209 -0.000000 0.000001 0.000000 -96.691634 -7.303091 21.580804 56.615769 -4.749797 -13.899283 20.282407 -7.417375 11.067779 0.000001 -0.000001 0.000000 -0.000002 0.000000 0.000001 -116.641190 4.262555 9.655199 117.595367 -7.719700 -2.180548 49.123530 1.498281 2.203286 -0.000001 0.000001 0.000000 -0.000001 -0.000001 0.000000 33.273089 -7.027173 -10.584730 -1.359156 -0.996963 -1.581733 -1.480002 -1.199184 -0.910618 -5.023299 1.893439 1.673765 -5.023316 1.893445 1.673765 -0.000000 0.000000 0.000000 -5.023243 1.893450 1.673763 -5.023298 1.893410 1.673771 -0.000001 0.000000 0.000000 -0.000000 0.000000 -0.000000 11.862439 -27.977712 26.191832 -55.866013 16.656007 11.417593 -90.273729 -72.340009 -70.563552 19.159060 8.441123 -6.769423 -4.203529 -7.550130 8.223051 2.839339 18.402324 -2.238595 0.000002 -0.000001 0.000001 13.555469 -2.396721 2.784489 -0.158623 0.312158 -41.417943 0.000001 -0.000001 -0.000002 8.872084 -0.947115 -8.279682 0.331989 0.701592 -38.784826 0.000000 0.000001 0.000002 6.418733 2.637032 -21.143298 0.072416 0.359706 -37.674241 -0.000004 -0.000002 0.000000 -5.757116 7.340637 -19.839304 0.246129 0.297650 -52.881036 0.000000 -0.000001 -0.000002 -0.000002 0.000003 -0.000002 -0.000002 0.000003 -0.000002 -0.000002 0.000003 -0.000002 0.000001 -0.000003 -0.000000 0.000001 -0.000003 -0.000001 0.000001 -0.000003 -0.000000 0.000001 -0.000003 0.000000 3.769983 11.074709 -19.093292 -80.238699 -18.402083 -30.381569 -59.729308 63.810086 56.438809 22.161736 22.495001 -18.508126 -13.517986 13.281405 -0.839658 9.540015 -37.919523 -3.541103 -0.000002 -0.000003 -0.000004 11.289812 3.880600 -9.945024 -0.299521 -0.129946 58.013858 -0.000004 -0.000001 -0.000001 5.507148 -9.351062 -11.108393 0.465961 -0.649694 50.784085 -0.000004 0.000001 -0.000001 5.176611 -18.778295 -5.863776 0.284166 -0.313265 61.589974 0.000000 0.000004 -0.000001 9.940348 -26.854704 10.500330 0.309551 -0.182898 78.639342 -0.000001 0.000003 -0.000000 0.000002 0.000000 0.000002 0.000000 0.000000 0.000003 0.000002 0.000001 0.000002 0.000000 0.000000 -0.000003 0.000001 0.000000 -0.000002 0.000000 0.000000 -0.000003 0.000001 -0.000000 -0.000000 -0.000000 -0.000001 0.000000 -0.000000 -0.000001 0.000000 -0.000000 -0.000001 0.000000 -0.000000 -0.000001 0.000000 -0.000000 -0.000001 0.000000 -0.000000 -0.000001 0.000000 -0.000000 -0.000001 0.000000 -0.000002 0.000000 -0.000000 -0.000000 0.000001 0.000000 
-3.213427 131.140747 24.074492 4.755885 -20.617860 10.629341 -0.000000 -0.000001 0.000001 -92.608780 -7.704312 19.566807 52.349257 -2.004438 -12.959467 22.358460 -8.218182 10.245046 -0.000000 0.000000 -0.000002 0.000002 0.000001 0.000000 -112.666381 5.924658 8.159417 113.100959 -6.309456 -1.929108 46.217896 0.657907 7.208629 -0.000001 0.000001 -0.000002 -0.000000 0.000001 -0.000000 31.932726 -6.693169 -10.264700 -0.846953 -1.225807 -2.282628 -0.947537 -1.280961 -1.065719 -4.761086 1.859638 1.870427 -4.761096 1.859650 1.870426 -0.000003 -0.000001 -0.000000 -4.761017 1.859657 1.870420 -4.761089 1.859655 1.870426 0.000001 -0.000001 -0.000000 -0.000003 -0.000001 -0.000000 9.913577 -27.228086 23.284593 -55.741020 16.364884 11.372912 -102.459046 -71.986007 -83.327884 24.322522 9.290147 -10.411704 -4.193081 -7.551389 8.223946 2.837660 18.407216 -2.238120 -0.000000 0.000000 -0.000006 13.552907 -2.392292 3.184910 -0.158806 0.311842 -41.077748 0.000001 -0.000001 0.000001 8.871430 -0.947734 -7.793592 0.330242 0.699873 -38.381258 -0.000001 -0.000000 0.000001 6.419551 2.632736 -20.547442 0.070592 0.357287 -37.187265 -0.000001 0.000001 0.000002 -5.740879 7.329641 -19.078030 0.243607 0.295855 -52.280809 0.000003 0.000000 -0.000005 0.000000 -0.000005 0.000003 0.000000 -0.000005 0.000003 -0.000001 -0.000005 0.000003 0.000000 -0.000002 0.000000 0.000000 -0.000003 -0.000000 0.000000 -0.000002 0.000000 -0.000002 -0.000003 -0.000001 3.679089 13.977359 -16.002228 -82.618262 -19.392435 -32.930534 -63.588802 64.803783 60.717267 25.040911 25.957290 -18.710093 -13.022060 12.669914 -1.171294 8.888030 -36.040374 -2.998082 0.000000 0.000001 0.000001 11.314058 4.196096 -10.256888 -0.288782 -0.126892 56.596655 0.000002 0.000001 0.000000 5.623086 -8.933873 -11.273140 0.452867 -0.655361 49.288424 0.000000 -0.000001 0.000003 5.376727 -18.306160 -5.932433 0.273744 -0.313136 59.252670 -0.000000 0.000002 -0.000000 9.678772 -26.201528 9.310106 0.298886 -0.192506 74.597113 0.000001 0.000003 -0.000000 -0.000001 -0.000001 0.000001 -0.000003 0.000001 0.000003 -0.000001 -0.000001 0.000002 0.000003 -0.000001 0.000003 0.000004 -0.000001 0.000003 0.000003 -0.000001 0.000003 0.000004 -0.000001 0.000004 -0.000000 0.000001 0.000001 -0.000000 0.000001 0.000001 -0.000000 0.000001 0.000001 -0.000000 0.000001 0.000001 -0.000000 0.000001 0.000001 -0.000000 0.000001 0.000001 -0.000000 0.000001 0.000001 -0.000003 -0.000001 0.000001 -0.000000 -0.000001 0.000001 
